<?xml version="1.0" encoding="utf-8"?>
<!-- Generator: Adobe Illustrator 22.1.0, SVG Export Plug-In . SVG Version: 6.00 Build 0)  -->
<svg version="1.1" id="Ebene_1" xmlns="http://www.w3.org/2000/svg" xmlns:xlink="http://www.w3.org/1999/xlink" x="0px" y="0px"
	 viewBox="0 0 50 50" style="enable-background:new 0 0 50 50;" xml:space="preserve">
<style type="text/css">
	.st0{fill:#0066B3;}
</style>
<g>
	<path class="st0" d="M19.6,20.3c0.2,0.2,0.5,0.3,0.6,0.3c0.2,0,0.5-0.2,0.6-0.2l5.3-5.3c0.3-0.3,0.3-0.8,0-1.1s-0.8-0.3-1.1,0
		l-4.8,4.8l-2-2c-0.3-0.3-0.8-0.3-1.1,0c-0.3,0.3-0.3,0.8,0,1.1L19.6,20.3z"/>
	<path class="st0" d="M19.6,32.1c0.2,0.2,0.3,0.2,0.6,0.2s0.5,0,0.6-0.2l5.3-5.3c0.3-0.3,0.3-0.8,0-1.1s-0.8-0.3-1.1,0l-4.8,4.8
		l-2-2.2c-0.3-0.3-0.8-0.3-1.1,0c-0.3,0.3-0.3,0.8,0,1.1L19.6,32.1z"/>
</g>
<path class="st0" d="M47.8,13.1l-2.5-1.3l1.8-3.3c0.1-0.3,0.1-0.5-0.2-0.7L45.6,7l0.7-1.2c0.1-0.3,0.1-0.5-0.2-0.7l-2.5-1.3
	c-0.2-0.1-0.5-0.1-0.7,0.2l-0.7,1.2L41,4.5c-0.3-0.1-0.5-0.1-0.7,0.2l-8.2,15C32,20,32,20.2,32.3,20.4l0.4,0.2l-0.4,0.7l-0.7,1.3
	l-0.4,0.8l-2,3.7l-0.5,1l-6.6,12.2v0.1c0,0.1,0,0.1-0.1,0.2l-0.3,5.6l-0.8,1.5c-0.1,0.3-0.1,0.5,0.2,0.7c0.3,0.1,0.5,0.1,0.7-0.2
	l0.8-1.5l4.7-3.2c0-0.1,0-0.1,0.1-0.2l10.8-19.9l0.3,0.1c0.3,0.1,0.5,0.1,0.7-0.2L45,12.6l1.9,1l-8.7,16c-0.1,0.3-0.1,0.5,0.2,0.7
	c0.3,0.1,0.5,0.1,0.7-0.2L48,13.7C48.1,13.6,48,13.2,47.8,13.1z M43.6,4.9l1.6,0.9l-0.4,0.8l-1.6-0.9L43.6,4.9z M22.8,45.3l0.3-3.9
	l3,1.6L22.8,45.3z M26.7,42.3l-3.5-1.9L33.7,21l3.5,1.9L26.7,42.3z M38.4,22.4l-0.3-0.1l-4.4-2.4l-0.4-0.2l5.6-10.3l5.1,2.8
	L38.4,22.4z M44.4,11.3l-5.1-2.8l1.6-3l1.3,0.7l2.5,1.3L46,8.4L44.4,11.3z"/>
<g>
	<polygon class="st0" points="35.2,44.2 25.5,44.2 23.9,45.5 36.5,45.5 36.5,25.6 35.2,27 	"/>
	<polygon class="st0" points="6.6,2.5 6.6,45.5 22,45.5 22,44.2 8,44.2 8,3.8 35.2,3.8 35.2,15.1 36.5,13 36.5,2.5 	"/>
</g>
<path class="st0" d="M21.3,47.3c-0.5,0.5-1,0.9-2.4,0.9c-1,0-1.5-0.4-2.1-0.8c-0.7-0.6-1.5-1.2-3.3-1.2c-1.9,0-2.6,0.6-3.2,1.1
	c-0.5,0.5-1,0.8-2.4,0.9c-1,0-1.5-0.4-2.1-0.8c-0.7-0.5-1.5-1.2-3.2-1.2c-0.3,0-0.5,0.2-0.5,0.5s0.2,0.5,0.5,0.5c1.4,0,2,0.5,2.6,1
	s1.3,1,2.7,1l0,0c1.7,0,2.3-0.6,2.9-1.1s1.1-0.9,2.6-0.9c1.4,0,2,0.5,2.6,1s1.3,1,2.7,1c1.7,0,2.4-0.6,3-1.1"/>
</svg>
