<?xml version="1.0" encoding="utf-8"?>
<!-- Generator: Adobe Illustrator 22.1.0, SVG Export Plug-In . SVG Version: 6.00 Build 0)  -->
<svg version="1.1" id="Ebene_1" xmlns="http://www.w3.org/2000/svg" xmlns:xlink="http://www.w3.org/1999/xlink" x="0px" y="0px"
	 viewBox="0 0 50 50" style="enable-background:new 0 0 50 50;" xml:space="preserve">
<style type="text/css">
	.st0{fill:#0066B3;}
</style>
<g>
	<g>
		<path class="st0" d="M41.4,41.8H6.8c-2,0-3.6-1.6-3.6-3.6v-25c0-2,1.6-3.7,3.6-3.7h34.6c2,0,3.6,1.6,3.6,3.7v25
			C45,40.2,43.4,41.8,41.4,41.8z M6.8,11c-1.2,0-2.1,1-2.1,2.2v25c0,1.2,1,2.1,2.1,2.1h34.6c1.2,0,2.1-1,2.1-2.1v-25
			c0-1.2-1-2.2-2.1-2.2H6.8z M40.5,38H6.9V15.3L24,28.7l17.2-13.5v22l0,0.7L40.5,38z M8.4,36.5h31.3V18.3L24,30.7L8.4,18.3V36.5z
			 M24.1,25.8L7.9,13.4h32.4L24.1,25.8z M12.3,14.9L24.1,24l11.8-9.1H12.3z"/>
	</g>
</g>
</svg>
