<?xml version="1.0" encoding="utf-8"?>
<!-- Generator: Adobe Illustrator 24.0.1, SVG Export Plug-In . SVG Version: 6.00 Build 0)  -->
<svg version="1.1" id="Ebene_4" xmlns="http://www.w3.org/2000/svg" xmlns:xlink="http://www.w3.org/1999/xlink" x="0px" y="0px"
	 viewBox="0 0 510.2399902 510.2399902" style="enable-background:new 0 0 510.2399902 510.2399902;" xml:space="preserve">
<style type="text/css">
	.st0{fill:#001957;}
</style>
<path class="st0" d="M427.1542969,204.5009766c-18.5839844-35.621582-62.6826172-49.4848633-98.3037109-30.9008789
	c-3.7102051,1.9354248-7.1959229,4.1726074-10.4631958,6.6516113l-38.5827026-38.6696777
	c-2.8808594-2.8867188-4.1904297-6.8564453-3.5927734-10.890625s3.0019531-7.4536133,6.5957031-9.3813477l34.1171875-18.3041992
	c2.5507812,6.3994141,4.0224609,16.5561523-6.1162109,25.4199219l10.859375,12.421875
	c21.7675781-19.0292969,12.8691406-43.5834961,5.1240234-53.9082031l-4.2539062-5.6699219l-47.53125,25.5004883
	c-8.2373047,4.4189453-13.7470703,12.2568359-15.1162109,21.503418c-1.2875977,8.6897583,1.2867432,17.2478638,7.0814819,23.7399292
	l-94.3456421,49.2180786c-4.4522705,2.3224487-8.4367065,5.2860107-11.880127,8.7321777l-11.1707764-9.825882
	c-3.8916016-3.4230804-3.2347565-9.6442719,1.2626495-12.2201996c12.7529907-7.3043671,18.740799-13.4983215,19.1676483-13.9487915
	l-11.9755859-11.3505859c-0.0351562,0.0371094-3.8676758,3.9233398-11.9399414,8.9345703
	c-8.0361328,4.9882812-21.8305664,12.0302734-41.9121094,17.2509766l4.1513672,15.96875
	c3.1769257-0.825882,6.214119-1.6962433,9.1194839-2.5993652c4.3554459-1.3538818,9.0994263-0.3149567,12.5241165,2.6974182
	l21.2038116,18.6508484c-3.4377441,7.2281494-5.1170044,15.3238525-4.6520996,23.6173096l1.4345703,25.585083
	c-9.2377777,1.284668-18.2598572,4.368866-26.6293106,9.2180786c-14.5879593,8.4522095-25.8534851,21.8239746-31.6929169,37.6400757
	c-7.2251129,19.5692139-5.8589172,40.7105103,3.7118759,59.0567627c12.984375,24.8896484,38.4204102,39.15625,64.7236328,39.1542969
	c11.3408203-0.0009766,22.8481445-2.6542969,33.5800781-8.2529297
	c17.2558594-9.0019531,29.9736328-24.1855469,35.8100586-42.7529297
	c4.4246216-14.0761108,4.4830933-28.8173218,0.3349609-42.6444702l20.0238495-10.4458618
	c7.75177-4.0438843,13.196579-11.4465637,14.7479095-20.0509949l19.1541748-106.2392426
	c1.3233643-7.3401794,10.3538208-10.1628418,15.6218567-4.8829651l9.1077271,9.1281586
	c-5.9607544,7.184082-10.5299072,15.5267944-13.4133301,24.7003174
	c-5.8369141,18.5673828-4.0927734,38.2958984,4.9091797,55.5512695
	c9.0019531,17.2568359,24.1845703,29.9746094,42.7519531,35.8105469c7.2089844,2.265625,14.5888672,3.3886719,21.9355469,3.3886719
	c11.5751953,0,23.0595703-2.7910156,33.6162109-8.2978516C431.875,284.2216797,445.7373047,240.1235352,427.1542969,204.5009766z
	 M238.2276001,300.0910034l-16.947876,8.8416138c-9.123291-16.0791626-23.7512207-27.9349976-41.4779663-33.5068359
	c-5.0505981-1.5874023-10.1873779-2.5939941-15.3365479-3.0663452l-1.4656982-26.1445923
	c-0.2142334-3.8186646,0.2683716-7.5708618,1.3427734-11.1133423L238.2276001,300.0910034z M206.6511841,316.5641479
	l-3.7312622,1.9465942c-7.7861328,4.0605469-16.6293945,3.9023438-24.2631836-0.4394531
	c-7.6337891-4.3398438-12.2939453-11.8574219-12.7851562-20.625l-0.4699707-8.3833618
	c3.1737061,0.4299927,6.3344727,1.1234131,9.4523926,2.1030884
	C188.3764038,295.4175415,199.5754395,304.3886719,206.6511841,316.5641479z M211.722168,361.8398438
	c-4.5146484,14.3623047-14.3525391,26.1074219-27.7011719,33.0712891
	c-27.5556641,14.3730469-61.6679688,3.6513672-76.0429688-23.9033203
	c-6.9633789-13.3486328-8.3120117-28.6103516-3.7973633-42.9726562
	c4.5146484-14.3632812,14.3525391-26.1083984,27.7011719-33.0712891c5.4157104-2.8255615,11.1491699-4.7052002,17.006958-5.6652222
	l0.508667,9.0714722c0.7993164,14.2587891,8.6884766,26.9863281,21.1040039,34.0449219
	c6.434082,3.6582031,13.5532227,5.4931641,20.6835938,5.4931641c6.6279297,0,13.2661133-1.5859375,19.3662109-4.7685547
	l2.2704468-1.1844482C215.1538696,341.7356567,214.8155518,351.99823,211.722168,361.8398438z M247.1832886,285.9938965
	l-74.0053101-65.0953979c2.0957031-1.9624634,4.4611816-3.6721191,7.079834-5.038147l87.8310547-45.8193359L247.1832886,285.9938965
	z M388.6220703,288.1757812c-14.1228027,7.3677368-30.3870239,8.4489441-45.4619141,2.9533386
	c-12.2928162-4.4814148-22.714447-13.204895-29.2915955-24.5158386
	c-8.0748596-13.8865356-9.8691406-30.1037598-5.0882874-45.3134766c2.0702515-6.5860596,5.2716064-12.6123047,9.4058838-17.8889771
	l35.6986084,35.778717c3.2182007,3.2254486,8.441864,3.2312164,11.6672058,0.0128937v-0.0000153
	c3.2251892-3.2181702,3.230957-8.4414825,0.0129089-11.6667938l-35.3865967-35.4664154
	c2.003418-1.3997803,4.1003418-2.6911011,6.3031616-3.84021c8.3037109-4.331543,17.2021484-6.3842773,25.9765625-6.3842773
	c20.3447266,0,40.0234375,11.0356445,50.0673828,30.2880859
	C426.9003906,239.6884766,416.1767578,273.8007812,388.6220703,288.1757812z"/>
</svg>
