<?xml version="1.0" encoding="utf-8"?>
<!-- Generator: Adobe Illustrator 24.0.1, SVG Export Plug-In . SVG Version: 6.00 Build 0)  -->
<svg version="1.1" id="Ebene_4" xmlns="http://www.w3.org/2000/svg" xmlns:xlink="http://www.w3.org/1999/xlink" x="0px" y="0px"
	 viewBox="0 0 510.2399902 510.2399902" style="enable-background:new 0 0 510.2399902 510.2399902;" xml:space="preserve">
<style type="text/css">
	.st0{fill:#001957;}
</style>
<g>
	<g>
		<path class="st0" d="M116.3212891,384.2294922v-16.5l277.5976562-0.0048828v16.5L116.3212891,384.2294922z
			 M367.4638672,350.5087891h-224.659668V125.5883789H327.480011c22.082489,0,39.9838562,17.9013824,39.9838562,39.9838562
			V350.5087891z M263.3632812,334.0087891h87.6005859v-87.796875l-87.5986328,0.0024414L263.3632812,334.0087891z
			 M159.3041992,334.0087891h87.5585938l0.0024414-87.7944336l-87.5610352,0.0024414V334.0087891z M159.3041992,142.0883789
			v87.628418l87.5610352-0.0024414l0.0024414-87.6259766H159.3041992z M263.3671875,142.0883789l-0.0019531,87.6259766
			l87.5986328-0.0024414v-61.0139313c0-14.6960754-11.9135132-26.6096039-26.6095886-26.6096039H263.3671875z
			 M189.503418,212.8173828l-11.6669922-11.6679688l37.2324219-37.2280273l11.6669922,11.6679688L189.503418,212.8173828z
			 M175.6567383,185.206543l-11.6650391-11.6699219l23.7324219-23.7226562l11.6650391,11.6699219L175.6567383,185.206543z"/>
	</g>
</g>
</svg>
