<?xml version="1.0" encoding="utf-8"?>
<!-- Generator: Adobe Illustrator 24.0.1, SVG Export Plug-In . SVG Version: 6.00 Build 0)  -->
<svg version="1.1" id="Ebene_5" xmlns="http://www.w3.org/2000/svg" xmlns:xlink="http://www.w3.org/1999/xlink" x="0px" y="0px"
	 viewBox="0 0 510.2399902 510.2399902" style="enable-background:new 0 0 510.2399902 510.2399902;" xml:space="preserve">
<style type="text/css">
	.st0{fill:#001957;}
</style>
<g>
	<path class="st0" d="M136.9119873,117.5056381h199.7954102v215.7592773c0,32.5566406-17.5854492,49.765625-50.855957,49.765625
		h-99.9892578c-13.3955078,0-24.3125-4.1015625-32.4482422-12.1904297
		c-10.9501953-10.8876953-16.5019531-28.828125-16.5019531-53.3232422 M153.4119873,167.7927399v149.7241364
		c0,43.9326172,18.5195312,49.0136719,32.4501953,49.0136719h99.9892578c24.4023438,0,34.355957-9.6376953,34.355957-33.265625
		V134.0056305H153.4119873"/>
</g>
<g>
	<rect x="202.8605042" y="101.0056381" class="st0" width="66.9924927" height="16.5"/>
</g>
<g>
	<rect x="186.4647522" y="184.6288605" class="st0" width="100.1364441" height="16.5"/>
</g>
<g>
	<rect x="186.4647522" y="217.5330048" class="st0" width="66.6402588" height="16.5"/>
</g>
<path class="st0" d="M281.7363281,250.4371338l-49.0839691,75.3798828l-34.4677734-30.2949219l-10.1274414,11.5234375
	l41.1245117,36.1445312c1.4003906,1.2314453,3.1992188,1.9091797,5.0634766,1.9091797
	c0.3457031,0,0.6962891-0.0234375,1.0429688-0.0712891c2.2080078-0.3027344,4.1708984-1.5478516,5.3857422-3.4140625
	l53.9179535-82.8056641L281.7363281,250.4371338z"/>
</svg>
