<?xml version="1.0" encoding="utf-8"?>
<!-- Generator: Adobe Illustrator 22.1.0, SVG Export Plug-In . SVG Version: 6.00 Build 0)  -->
<svg version="1.1" id="Ebene_1" xmlns="http://www.w3.org/2000/svg" xmlns:xlink="http://www.w3.org/1999/xlink" x="0px" y="0px"
	 viewBox="0 0 50 50" style="enable-background:new 0 0 50 50;" xml:space="preserve">
<style type="text/css">
	.st0{fill:#0066B3;}
</style>
<g>
	<g>
		<path class="st0" d="M7,44.5C6.5,44.4,6.4,44,6.4,44c3.2-15.4,10-26.3,19.5-31.5c0.2-0.1,0.3-0.2,0.4-0.2c0.2-0.2,0.4-0.4,0.4-0.6
			c0-0.4-0.1-0.6-0.2-0.7l-4-3.9c-0.1-0.1-0.3-0.4-0.3-0.8V6.2l0.1-0.2c0.2-0.4,0.5-0.6,1-0.6L39.6,5h0c0.6,0,1.1,0.4,1.1,1.1
			L41,22.5c0,0.4-0.1,0.5-0.3,0.7c-0.2,0.2-0.4,0.3-0.7,0.3s-0.5-0.1-0.7-0.3l-3.8-3.6c-0.2-0.2-0.6-0.3-0.8-0.2
			C34,19.6,18.9,23.6,7.8,44.6C7.8,44.6,7.3,44.6,7,44.5z M24.3,6.9l3.1,3c0.5,0.3,0.7,1,0.7,1.8c0,0.7-0.3,1.3-1,1.8
			c-0.1,0.1-0.3,0.2-0.5,0.3c-7.9,4.3-14.1,13.2-17.5,25.3C20.2,21.7,33.7,18.1,34.3,18c0.8-0.2,1.7,0.1,2.2,0.6l3,2.8L39.2,6.6
			L24.3,6.9z M39.2,6.1C39.2,6.1,39.2,6.1,39.2,6.1L39.2,6.1z"/>
	</g>
</g>
<g>
	<polygon class="st0" points="46.1,13.2 46.1,29.2 47.5,28.9 47.5,11.8 40.2,11.8 40.2,13.2 	"/>
	<polygon class="st0" points="1.9,43.5 47.5,43.5 47.5,27.2 46.1,27.2 46.1,42 3.3,42 3.3,13.2 26,13.1 27.4,11.8 1.9,11.8 	"/>
</g>
</svg>
