<?xml version="1.0" encoding="utf-8"?>
<!-- Generator: Adobe Illustrator 23.1.1, SVG Export Plug-In . SVG Version: 6.00 Build 0)  -->
<svg version="1.1" id="Ebene_1" xmlns="http://www.w3.org/2000/svg" xmlns:xlink="http://www.w3.org/1999/xlink" x="0px" y="0px"
	 viewBox="0 0 510.2 510.2" style="enable-background:new 0 0 510.2 510.2;" xml:space="preserve">
<style type="text/css">
	.st0{fill:#001957;}
</style>
<g>
	<g>
		<g>
			<path class="st0" d="M231.9,325.4l-13.7-9.2l26-38.8l-5.6,0l-0.7-0.1c-4.2-0.7-7.7-3.5-9.5-7.4c-1.7-3.9-1.4-8.4,0.8-12l0.2-0.3
				l23.5-34.2h-66.4l-23.8,36.9l-13.9-8.9l18.4-28.5c-18.9-3.1-33.7-19.3-34-38.7c-0.3-18,11.5-33.8,28.3-39
				c5.6-31,33.1-54.5,65.1-54.5c15.3,0,29.7,5,41.2,14.3c3.9-1,7.7-1.5,11.5-1.5c20,0,37.2,13.6,42.3,32.5c8.2,2.4,15.5,7.3,20.7,14
				c9.1,0.5,17.5,4.3,23.9,10.8c6.8,6.9,10.4,16.1,10.2,25.8c0,20.3-16.5,36.9-36.6,36.9H273l-25.8,37.4l27.9,0L231.9,325.4z
				 M226.6,107.2c-25.6,0-47.3,20-49.5,45.4l-0.6,6.5l-6.5,0.9c-11.8,1.7-20.6,11.9-20.3,23.8C150,196.7,160.9,207,174,207h165.9
				c10.9,0,20.1-9.4,20.1-20.4l0-0.2c0.1-5.3-1.9-10.3-5.5-14c-3.8-3.8-8.8-5.9-14.3-5.9h-6.9l-2.4-4c-3.6-6.1-10.1-10.4-17.3-11.3
				l-6.3-0.8l-0.8-6.3c-1.7-13.7-13.3-24-27-24c-3.4,0-6.8,0.6-10.6,2l-4.8,1.7l-3.7-3.5C251.3,111.9,239.4,107.2,226.6,107.2z
				 M177.1,317.2l-13.7-9.2l24.2-35.9l13.7,9.2L177.1,317.2z M316.2,284.7l-13.7-9.2l24.2-35.9l13.7,9.2L316.2,284.7z"/>
		</g>
	</g>
	<path class="st0" d="M310.6,379.7c-2.9-7.1-3-14.6-3-14.6h-16.5c0,24.6-15.7,26.3-19,26.4c-4.9,0-11.9-1.2-16.3-11.8
		c-2.9-7.1-3-14.6-3-14.6h-16.5c0,24.6-15.7,26.3-19,26.4c-4.9,0-11.9-1.2-16.3-11.8c-2.9-7.1-3-14.6-3-14.6h-16.5
		c0,24.7-15.8,26.3-19,26.4l0.1,0l0,16.5c0,0,0,0,0,0c1.5,0,13.9-0.3,23.8-10.3c1.2-1.2,2.4-2.6,3.4-4c6.3,9.3,15.8,14.3,27.4,14.3
		v0c0,0,0,0,0,0c1.5,0,13.9-0.3,23.8-10.3c1.2-1.2,2.4-2.6,3.4-4c6.3,9.3,15.8,14.3,27.4,14.3v0c0,0,0,0,0,0c0,0,0,0,0,0v0
		c1.5,0,13.9-0.3,23.8-10.3c1.2-1.2,2.4-2.6,3.4-4c6.3,9.3,15.8,14.3,27.4,14.3v-16.5C322,391.5,315,390.2,310.6,379.7z"/>
</g>
</svg>
