<svg xmlns="http://www.w3.org/2000/svg" xmlns:xlink="http://www.w3.org/1999/xlink" width="40" height="40" viewBox="0 0 40 40"><defs><clipPath id="a"><path d="M2.011,11.509.244,9.741a.834.834,0,0,1,0-1.179L2.011,6.794,8.385.366a1.252,1.252,0,0,1,1.768,0l.589.589a1.249,1.249,0,0,1,0,1.768L4.369,9.151l6.374,6.473a1.25,1.25,0,0,1,0,1.768l-.589.589a1.251,1.251,0,0,1-1.768,0Z" transform="translate(11.109 18.347) rotate(180)" fill="#001957"/></clipPath></defs><circle cx="20" cy="20" r="20" fill="#999"/><g transform="translate(10 10)"><g transform="translate(5 0.833)"><path d="M2.011,11.509.244,9.741a.834.834,0,0,1,0-1.179L2.011,6.794,8.385.366a1.252,1.252,0,0,1,1.768,0l.589.589a1.249,1.249,0,0,1,0,1.768L4.369,9.151l6.374,6.473a1.25,1.25,0,0,1,0,1.768l-.589.589a1.251,1.251,0,0,1-1.768,0Z" transform="translate(11.109 18.347) rotate(180)" fill="rgba(236,236,236,0.8)"/></g></g></svg>