<?xml version="1.0" encoding="utf-8"?>
<!-- Generator: Adobe Illustrator 24.0.1, SVG Export Plug-In . SVG Version: 6.00 Build 0)  -->
<svg version="1.1" id="Ebene_4" xmlns="http://www.w3.org/2000/svg" xmlns:xlink="http://www.w3.org/1999/xlink" x="0px" y="0px"
	 viewBox="0 0 510.2399902 510.2399902" style="enable-background:new 0 0 510.2399902 510.2399902;" xml:space="preserve">
<style type="text/css">
	.st0{fill:#001957;}
</style>
<g>
	<polygon class="st0" points="240.5195312,330.9638672 226.2802734,322.6279297 246.9458008,287.3320312 224.6977539,287.3320312 
		255.3012695,231.9116211 269.7451172,239.8881836 252.6577148,270.8320312 275.7265625,270.8320312 	"/>
</g>
<g>
	<g>
		<path class="st0" d="M376.7611389,372.7236328h-240.525177c-9.3570023,0-15.205101-10.129303-10.5265427-18.232666
			l116.4043503-201.6149902c3.0019531-5.2001953,8.3798828-8.3051758,14.3852539-8.3051758
			c6.0048828,0,11.3828125,3.1049805,14.3847656,8.3051758l116.4039001,201.6150208
			C391.9662476,362.5943604,386.1181335,372.7236328,376.7611389,372.7236328z M143.7612305,356.2236328h225.4750977
			L256.5947266,161.1259766c-0.0244141-0.0415039-0.0380859-0.0561523-0.0380859-0.0561523
			c-0.0146484-0.0024414-0.0986328-0.003418-0.1328125,0.0126953L143.7612305,356.2236328z"/>
	</g>
</g>
</svg>
